<svg width="39" height="39" viewBox="0 0 39 39" fill="none" xmlns="http://www.w3.org/2000/svg">
<circle cx="19.5" cy="19.5" r="19.5" fill="#D4843A"/>
<path d="M31.4287 27.7962L25.584 22.1859C26.9131 20.2918 27.5689 17.9254 27.2178 15.4038C26.6192 11.1147 22.957 7.62429 18.4844 7.08074C11.8344 6.27303 6.24262 11.6406 7.08412 18.0238C7.65053 22.319 11.2873 25.837 15.756 26.4089C18.383 26.7458 20.8488 26.1166 22.8215 24.8406L28.6662 30.4509C29.4289 31.183 30.6658 31.183 31.4285 30.4509C32.1905 29.7179 32.1905 28.5274 31.4287 27.7962ZM10.8623 16.7489C10.8623 13.4409 13.666 10.7496 17.1123 10.7496C20.5586 10.7496 23.3623 13.4409 23.3623 16.7489C23.3623 20.057 20.5586 22.7483 17.1123 22.7483C13.666 22.7483 10.8623 20.058 10.8623 16.7489Z" fill="#E4B78E"/>
</svg>
